<?xml version="1.0" encoding="UTF-8"?>
<!DOCTYPE svg PUBLIC "-//W3C//DTD SVG 1.1//EN" "http://www.w3.org/Graphics/SVG/1.1/DTD/svg11.dtd">
<svg xmlns="http://www.w3.org/2000/svg" version="1.1" width="1024px" height="1024px" style="shape-rendering:geometricPrecision; text-rendering:geometricPrecision; image-rendering:optimizeQuality; fill-rule:evenodd; clip-rule:evenodd" xmlns:xlink="http://www.w3.org/1999/xlink">
<g><path style="opacity:0.996" fill="#cadcff" d="M 729.5,52.5 C 730.826,87.4334 730.826,122.433 729.5,157.5C 726.607,156.26 723.773,154.926 721,153.5C 720.544,154.744 721.044,155.577 722.5,156C 721.033,157.098 720.199,158.598 720,160.5C 718.055,158.819 716.055,158.152 714,158.5C 713.683,156.699 713.016,156.366 712,157.5C 711.667,156.833 711.333,156.167 711,155.5C 709.602,156.051 708.268,156.384 707,156.5C 702.977,153.049 698.477,151.882 693.5,153C 688.59,151.396 683.757,149.563 679,147.5C 678.127,147.735 677.293,148.069 676.5,148.5C 675.126,147.289 673.626,146.289 672,145.5C 670,145.5 668,145.5 666,145.5C 662.351,144.923 659.017,143.589 656,141.5C 655.329,142.252 654.496,142.586 653.5,142.5C 640.467,140.326 627.3,137.659 614,134.5C 612.372,135.097 610.705,134.763 609,133.5C 608.667,133.833 608.333,134.167 608,134.5C 605.306,133.217 602.64,132.884 600,133.5C 595.352,132.913 590.852,132.246 586.5,131.5C 586.427,129.973 587.094,128.973 588.5,128.5C 588.735,129.097 589.235,129.43 590,129.5C 592.252,127.738 594.585,127.071 597,127.5C 605.429,128.991 613.763,130.324 622,131.5C 624.372,129.954 626.372,130.288 628,132.5C 628.893,131.919 629.893,131.585 631,131.5C 636.119,132.063 640.786,133.063 645,134.5C 645.691,132.109 646.691,132.109 648,134.5C 651.249,134.958 654.249,134.958 657,134.5C 657.667,135.167 658.333,135.833 659,136.5C 661.782,135.654 664.616,135.487 667.5,136C 666.631,134.535 667.131,133.369 669,132.5C 670.872,133.068 672.705,133.735 674.5,134.5C 675.5,111.176 675.833,87.8429 675.5,64.5C 693.008,58.3316 711.008,54.3316 729.5,52.5 Z"/></g>
<g><path style="opacity:0.998" fill="#c4d8ff" d="M 729.5,52.5 C 744.519,52.29 759.519,52.6233 774.5,53.5C 773.672,96.4291 773.172,139.429 773,182.5C 770.966,180.968 768.799,179.635 766.5,178.5C 765.713,179.242 765.047,180.075 764.5,181C 765.451,181.718 765.617,182.551 765,183.5C 760.049,182.005 755.382,179.339 751,175.5C 750.667,176.5 750.333,177.5 750,178.5C 748.5,177.333 747,176.167 745.5,175C 741.873,174.436 738.707,172.936 736,170.5C 735.586,170.957 735.086,171.291 734.5,171.5C 729.921,169.294 725.421,166.961 721,164.5C 720.667,164.833 720.333,165.167 720,165.5C 710.071,160.755 700.071,157.089 690,154.5C 677.789,150.374 665.622,146.374 653.5,142.5C 654.496,142.586 655.329,142.252 656,141.5C 659.017,143.589 662.351,144.923 666,145.5C 668,145.5 670,145.5 672,145.5C 673.626,146.289 675.126,147.289 676.5,148.5C 677.293,148.069 678.127,147.735 679,147.5C 683.757,149.563 688.59,151.396 693.5,153C 698.477,151.882 702.977,153.049 707,156.5C 708.268,156.384 709.602,156.051 711,155.5C 711.333,156.167 711.667,156.833 712,157.5C 713.016,156.366 713.683,156.699 714,158.5C 716.055,158.152 718.055,158.819 720,160.5C 720.199,158.598 721.033,157.098 722.5,156C 721.044,155.577 720.544,154.744 721,153.5C 723.773,154.926 726.607,156.26 729.5,157.5C 730.826,122.433 730.826,87.4334 729.5,52.5 Z"/></g>
<g><path style="opacity:0.999" fill="#528eff" d="M 523.5,65.5 C 523.718,357.887 523.718,650.553 523.5,943.5C 509.833,935.833 499.167,925.167 491.5,911.5C 492.478,911.189 493.145,910.522 493.5,909.5C 493.456,615.727 493.456,334.227 493.5,65C 493.586,62.6485 492.586,61.1485 490.5,60.5C 502.51,55.4107 513.51,57.0773 523.5,65.5 Z"/></g>
<g><path style="opacity:0.998" fill="#bdd4ff" d="M 774.5,53.5 C 790.031,55.7982 805.031,59.7982 819.5,65.5C 818.667,115.665 818.167,165.998 818,216.5C 816.316,214.649 814.483,212.982 812.5,211.5C 811.253,213.006 811.253,214.506 812.5,216C 812,216.5 811.5,217 811,217.5C 808.555,216.023 806.388,214.19 804.5,212C 803.216,211.316 802.049,211.483 801,212.5C 798.966,211.257 798.133,209.757 798.5,208C 797.328,207.647 796.162,207.813 795,208.5C 793.126,206.659 791.126,204.992 789,203.5C 788.667,203.833 788.333,204.167 788,204.5C 785.943,201.986 783.61,200.653 781,200.5C 748.65,179.685 711.483,162.851 669.5,150C 654.396,147.24 639.063,143.907 623.5,140C 610.106,136.913 596.773,135.413 583.5,135.5C 583.738,133.596 584.738,132.262 586.5,131.5C 590.852,132.246 595.352,132.913 600,133.5C 602.64,132.884 605.306,133.217 608,134.5C 608.333,134.167 608.667,133.833 609,133.5C 610.705,134.763 612.372,135.097 614,134.5C 627.3,137.659 640.467,140.326 653.5,142.5C 665.622,146.374 677.789,150.374 690,154.5C 700.071,157.089 710.071,160.755 720,165.5C 720.333,165.167 720.667,164.833 721,164.5C 725.421,166.961 729.921,169.294 734.5,171.5C 735.086,171.291 735.586,170.957 736,170.5C 738.707,172.936 741.873,174.436 745.5,175C 747,176.167 748.5,177.333 750,178.5C 750.333,177.5 750.667,176.5 751,175.5C 755.382,179.339 760.049,182.005 765,183.5C 765.617,182.551 765.451,181.718 764.5,181C 765.047,180.075 765.713,179.242 766.5,178.5C 768.799,179.635 770.966,180.968 773,182.5C 773.172,139.429 773.672,96.4291 774.5,53.5 Z"/></g>
<g><path style="opacity:0.992" fill="#5391ff" d="M 490.5,60.5 C 492.586,61.1485 493.586,62.6485 493.5,65C 493.456,334.227 493.456,615.727 493.5,909.5C 493.145,910.522 492.478,911.189 491.5,911.5C 484.137,900.95 478.97,889.283 476,876.5C 474.483,870.248 473.483,863.914 473,857.5C 472.667,741.833 472.333,626.167 472,510.5C 451.497,496.282 428.997,487.282 404.5,483.5C 405.833,370.5 405.833,257.5 404.5,144.5C 426.724,139.039 449.391,135.706 472.5,134.5C 472.333,117.163 472.5,99.8301 473,82.5C 474.808,71.8481 480.641,64.5148 490.5,60.5 Z"/></g>
<g><path style="opacity:0.996" fill="#518cff" d="M 523.5,65.5 C 528.713,69.9161 531.879,75.5827 533,82.5C 533.5,99.8301 533.667,117.163 533.5,134.5C 538.717,134.242 543.884,134.575 549,135.5C 550.715,134.396 552.215,133.062 553.5,131.5C 552.972,132.847 552.805,134.181 553,135.5C 563.56,120.251 578.06,114.251 596.5,117.5C 596.5,118.167 596.167,118.5 595.5,118.5C 578.853,116.101 565.52,121.601 555.5,135C 560.446,136.161 565.446,136.994 570.5,137.5C 570.67,138.822 570.337,139.989 569.5,141C 567.714,141.785 566.214,142.951 565,144.5C 564.667,144.167 564.333,143.833 564,143.5C 559.364,151.803 555.364,159.47 552,166.5C 550.989,167.337 549.822,167.67 548.5,167.5C 547.862,169.46 547.862,171.293 548.5,173C 545.961,174.099 545.295,175.766 546.5,178C 545.333,179.5 544.167,181 543,182.5C 542.191,186.76 540.691,190.76 538.5,194.5C 538.377,196.622 538.377,198.789 538.5,201C 536.833,202 535.5,203.333 534.5,205C 535.214,206.343 534.88,207.676 533.5,209C 533.5,211 533.5,213 533.5,215C 532.833,215.667 532.167,216.333 531.5,217C 532.397,221.884 532.397,226.884 531.5,232C 530.833,233.333 530.167,234.667 529.5,236C 529.5,249.333 529.5,262.667 529.5,276C 530.167,277.333 530.833,278.667 531.5,280C 530.903,281.889 530.569,283.722 530.5,285.5C 530.977,286.478 531.643,287.311 532.5,288C 532.167,290.333 531.833,292.667 531.5,295C 533.125,295.853 533.458,296.853 532.5,298C 533.872,300.725 534.872,303.391 535.5,306C 535.167,306.333 534.833,306.667 534.5,307C 535.5,308.667 536.833,310 538.5,311C 538.377,313.211 538.377,315.378 538.5,317.5C 540.691,321.24 542.191,325.24 543,329.5C 544.167,331 545.333,332.5 546.5,334C 545.295,336.234 545.961,337.901 548.5,339C 547.862,340.707 547.862,342.54 548.5,344.5C 549.552,344.351 550.552,344.517 551.5,345C 552.474,347.287 553.807,349.287 555.5,351C 554.366,352.016 554.699,352.683 556.5,353C 556.167,353.333 555.833,353.667 555.5,354C 557.291,356.414 558.957,358.914 560.5,361.5C 560.291,362.086 559.957,362.586 559.5,363C 564.412,367.51 568.245,372.344 571,377.5C 571.914,376.346 572.747,376.513 573.5,378C 573.167,378.333 572.833,378.667 572.5,379C 579.637,385.82 586.804,393.32 594,401.5C 599.303,404.754 604.303,409.087 609,414.5C 609.333,414.167 609.667,413.833 610,413.5C 612.439,416.059 615.105,418.392 618,420.5C 618.333,420.167 618.667,419.833 619,419.5C 620,420.833 621,422.167 622,423.5C 622.333,423.167 622.667,422.833 623,422.5C 630.949,428.785 639.449,433.119 648.5,435.5C 650.11,437.998 652.11,438.665 654.5,437.5C 666.289,443.559 678.623,448.226 691.5,451.5C 698.783,453.706 706.117,455.706 713.5,457.5C 708.663,457.884 703.997,457.217 699.5,455.5C 698.167,456.167 696.833,456.833 695.5,457.5C 689.274,455.573 682.941,454.073 676.5,453C 673.907,452.149 671.073,450.982 668,449.5C 667.667,450.167 667.333,450.833 667,451.5C 663.25,449.479 659.083,447.479 654.5,445.5C 653.353,445.818 652.519,446.484 652,447.5C 649.953,444.643 646.786,442.476 642.5,441C 640.888,440.28 639.388,440.446 638,441.5C 637.167,440.5 636.333,439.5 635.5,438.5C 634.914,438.709 634.414,439.043 634,439.5C 630.842,436.92 627.508,434.587 624,432.5C 623.667,433.167 623.333,433.833 623,434.5C 618.672,431.562 614.338,427.895 610,423.5C 607.843,426.078 606.677,426.078 606.5,423.5C 605.264,424.246 603.93,424.579 602.5,424.5C 601.349,421.533 600.182,418.866 599,416.5C 597.16,417.833 596.66,417.666 597.5,416C 597,415.5 596.5,415 596,414.5C 595,415.833 594,417.167 593,418.5C 588.275,414.494 584.608,410.16 582,405.5C 580.513,406.253 580.346,407.086 581.5,408C 580.736,410.069 580.236,412.236 580,414.5C 577.967,413.984 577.967,414.65 580,416.5C 580.5,439.831 580.667,463.164 580.5,486.5C 563.726,491.637 548.226,499.304 534,509.5C 533.333,624.5 533.333,739.5 534,854.5C 537.171,879.837 551.338,894.504 576.5,898.5C 577.568,899.434 578.901,899.768 580.5,899.5C 580.5,919.5 580.5,939.5 580.5,959.5C 559.778,959.808 540.778,954.475 523.5,943.5C 523.718,650.553 523.718,357.887 523.5,65.5 Z"/></g>
<g><path style="opacity:0.998" fill="#b8d0ff" d="M 819.5,65.5 C 835.338,71.0841 850.004,78.7508 863.5,88.5C 863.667,145.834 863.5,203.168 863,260.5C 860.626,258.461 858.626,256.128 857,253.5C 856.08,256.308 856.913,258.475 859.5,260C 858.667,260.833 857.833,261.667 857,262.5C 854.147,259.948 851.647,257.115 849.5,254C 848.551,253.383 847.718,253.549 847,254.5C 800.037,213.214 746.871,181.214 687.5,158.5C 674.188,154.671 660.854,150.838 647.5,147C 631.416,144.85 615.416,142.183 599.5,139C 594.305,138.297 589.139,138.464 584,139.5C 582.624,139.316 581.791,138.649 581.5,137.5C 581.833,136.5 582.5,135.833 583.5,135.5C 596.773,135.413 610.106,136.913 623.5,140C 639.063,143.907 654.396,147.24 669.5,150C 711.483,162.851 748.65,179.685 781,200.5C 783.61,200.653 785.943,201.986 788,204.5C 788.333,204.167 788.667,203.833 789,203.5C 791.126,204.992 793.126,206.659 795,208.5C 796.162,207.813 797.328,207.647 798.5,208C 798.133,209.757 798.966,211.257 801,212.5C 802.049,211.483 803.216,211.316 804.5,212C 806.388,214.19 808.555,216.023 811,217.5C 811.5,217 812,216.5 812.5,216C 811.253,214.506 811.253,213.006 812.5,211.5C 814.483,212.982 816.316,214.649 818,216.5C 818.167,165.998 818.667,115.665 819.5,65.5 Z"/></g>
<g><path style="opacity:0.994" fill="#d2e2ff" d="M 675.5,64.5 C 675.833,87.8429 675.5,111.176 674.5,134.5C 672.705,133.735 670.872,133.068 669,132.5C 667.131,133.369 666.631,134.535 667.5,136C 664.616,135.487 661.782,135.654 659,136.5C 658.333,135.833 657.667,135.167 657,134.5C 654.249,134.958 651.249,134.958 648,134.5C 646.691,132.109 645.691,132.109 645,134.5C 640.786,133.063 636.119,132.063 631,131.5C 629.893,131.585 628.893,131.919 628,132.5C 626.372,130.288 624.372,129.954 622,131.5C 613.763,130.324 605.429,128.991 597,127.5C 594.585,127.071 592.252,127.738 590,129.5C 589.235,129.43 588.735,129.097 588.5,128.5C 590.833,125.167 593.167,121.833 595.5,118.5C 596.167,118.5 596.5,118.167 596.5,117.5C 597.5,117.167 598.167,116.5 598.5,115.5C 599.167,115.5 599.5,115.167 599.5,114.5C 621.132,92.3411 646.466,75.6744 675.5,64.5 Z"/></g>
<g><path style="opacity:0.997" fill="#b1cbff" d="M 863.5,88.5 C 884.876,103.542 902.876,121.876 917.5,143.5C 916.667,206.665 916.167,269.999 916,333.5C 913.752,330.672 911.752,327.672 910,324.5C 909.667,326.167 909.333,327.833 909,329.5C 908.333,330.833 907.667,330.833 907,329.5C 905.92,327.004 904.586,324.67 903,322.5C 902,322.167 901,321.833 900,321.5C 896.706,315.553 892.706,310.22 888,305.5C 886.527,305.868 885.027,305.368 883.5,304C 883.833,303.667 884.167,303.333 884.5,303C 854.74,267.953 820.74,236.619 782.5,209C 766.999,198.836 750.999,189.503 734.5,181C 733.216,180.316 732.049,180.483 731,181.5C 701.358,165.125 670.191,154.125 637.5,148.5C 623.343,145.635 609.176,142.968 595,140.5C 588.7,140.822 582.7,142.822 577,146.5C 576.601,146.272 576.435,145.938 576.5,145.5C 577.167,144.167 577.833,142.833 578.5,141.5C 579.338,141.158 579.672,140.492 579.5,139.5C 580.167,138.833 580.833,138.167 581.5,137.5C 581.791,138.649 582.624,139.316 584,139.5C 589.139,138.464 594.305,138.297 599.5,139C 615.416,142.183 631.416,144.85 647.5,147C 660.854,150.838 674.188,154.671 687.5,158.5C 746.871,181.214 800.037,213.214 847,254.5C 847.718,253.549 848.551,253.383 849.5,254C 851.647,257.115 854.147,259.948 857,262.5C 857.833,261.667 858.667,260.833 859.5,260C 856.913,258.475 856.08,256.308 857,253.5C 858.626,256.128 860.626,258.461 863,260.5C 863.5,203.168 863.667,145.834 863.5,88.5 Z"/></g>
<g><path style="opacity:0.004" fill="#0000ff" d="M 599.5,114.5 C 599.5,115.167 599.167,115.5 598.5,115.5C 580.389,112.534 565.389,117.867 553.5,131.5C 557.04,124.366 562.706,119.532 570.5,117C 579.949,113.61 589.616,112.777 599.5,114.5 Z"/></g>
<g><path style="opacity:0.004" fill="#00fffe" d="M 598.5,115.5 C 598.167,116.5 597.5,117.167 596.5,117.5C 578.06,114.251 563.56,120.251 553,135.5C 552.805,134.181 552.972,132.847 553.5,131.5C 565.389,117.867 580.389,112.534 598.5,115.5 Z"/></g>
<g><path style="opacity:0.181" fill="#5aa7ff" d="M 595.5,118.5 C 593.167,121.833 590.833,125.167 588.5,128.5C 587.094,128.973 586.427,129.973 586.5,131.5C 584.738,132.262 583.738,133.596 583.5,135.5C 582.5,135.833 581.833,136.5 581.5,137.5C 580.833,138.167 580.167,138.833 579.5,139.5C 576.781,138.087 573.781,137.42 570.5,137.5C 565.446,136.994 560.446,136.161 555.5,135C 565.52,121.601 578.853,116.101 595.5,118.5 Z"/></g>
<g><path style="opacity:1" fill="#5392ff" d="M 570.5,137.5 C 573.781,137.42 576.781,138.087 579.5,139.5C 579.672,140.492 579.338,141.158 578.5,141.5C 574.092,144.072 570.425,147.572 567.5,152C 559.507,164.515 552.507,178.515 546.5,194C 546.848,196.055 546.181,198.055 544.5,200C 544.833,200.333 545.167,200.667 545.5,201C 542.952,209.97 540.618,218.97 538.5,228C 539.462,231.061 539.129,234.394 537.5,238C 537.5,250 537.5,262 537.5,274C 539.129,277.606 539.462,280.939 538.5,284C 540.618,293.03 542.952,302.03 545.5,311C 545.152,313.055 545.819,315.055 547.5,317C 547.167,317.333 546.833,317.667 546.5,318C 552.334,331.306 558.334,344.472 564.5,357.5C 565.5,357.5 566.5,357.5 567.5,357.5C 569.668,364.838 573.668,371.005 579.5,376C 579.167,376.333 578.833,376.667 578.5,377C 583.606,382.028 588.606,387.195 593.5,392.5C 594.417,393.127 595.417,393.461 596.5,393.5C 601.833,398.5 607.167,403.5 612.5,408.5C 625.399,419.727 639.399,429.394 654.5,437.5C 652.11,438.665 650.11,437.998 648.5,435.5C 639.449,433.119 630.949,428.785 623,422.5C 622.667,422.833 622.333,423.167 622,423.5C 621,422.167 620,420.833 619,419.5C 618.667,419.833 618.333,420.167 618,420.5C 615.105,418.392 612.439,416.059 610,413.5C 609.667,413.833 609.333,414.167 609,414.5C 604.303,409.087 599.303,404.754 594,401.5C 586.804,393.32 579.637,385.82 572.5,379C 572.833,378.667 573.167,378.333 573.5,378C 572.747,376.513 571.914,376.346 571,377.5C 568.245,372.344 564.412,367.51 559.5,363C 559.957,362.586 560.291,362.086 560.5,361.5C 558.957,358.914 557.291,356.414 555.5,354C 555.833,353.667 556.167,353.333 556.5,353C 554.699,352.683 554.366,352.016 555.5,351C 553.807,349.287 552.474,347.287 551.5,345C 550.552,344.517 549.552,344.351 548.5,344.5C 547.862,342.54 547.862,340.707 548.5,339C 545.961,337.901 545.295,336.234 546.5,334C 545.333,332.5 544.167,331 543,329.5C 542.191,325.24 540.691,321.24 538.5,317.5C 538.377,315.378 538.377,313.211 538.5,311C 536.833,310 535.5,308.667 534.5,307C 534.833,306.667 535.167,306.333 535.5,306C 534.872,303.391 533.872,300.725 532.5,298C 533.458,296.853 533.125,295.853 531.5,295C 531.833,292.667 532.167,290.333 532.5,288C 531.643,287.311 530.977,286.478 530.5,285.5C 530.569,283.722 530.903,281.889 531.5,280C 530.833,278.667 530.167,277.333 529.5,276C 529.5,262.667 529.5,249.333 529.5,236C 530.167,234.667 530.833,233.333 531.5,232C 532.397,226.884 532.397,221.884 531.5,217C 532.167,216.333 532.833,215.667 533.5,215C 533.5,213 533.5,211 533.5,209C 534.88,207.676 535.214,206.343 534.5,205C 535.5,203.333 536.833,202 538.5,201C 538.377,198.789 538.377,196.622 538.5,194.5C 540.691,190.76 542.191,186.76 543,182.5C 544.167,181 545.333,179.5 546.5,178C 545.295,175.766 545.961,174.099 548.5,173C 547.862,171.293 547.862,169.46 548.5,167.5C 549.822,167.67 550.989,167.337 552,166.5C 555.364,159.47 559.364,151.803 564,143.5C 564.333,143.833 564.667,144.167 565,144.5C 566.214,142.951 567.714,141.785 569.5,141C 570.337,139.989 570.67,138.822 570.5,137.5 Z"/></g>
<g><path style="opacity:0.997" fill="#abc7ff" d="M 917.5,143.5 C 953.658,201.776 960.491,263.443 938,328.5C 934.7,337.099 930.867,345.432 926.5,353.5C 926.167,354.167 925.833,354.833 925.5,355.5C 924.662,355.842 924.328,356.508 924.5,357.5C 923.662,357.842 923.328,358.508 923.5,359.5C 921.833,361.5 920.167,363.5 918.5,365.5C 916.983,365.489 915.816,364.823 915,363.5C 914.562,360.624 913.562,357.957 912,355.5C 882.059,307.06 844.893,264.227 800.5,227C 754.701,192.135 703.701,167.302 647.5,152.5C 644.167,151.167 640.833,149.833 637.5,148.5C 670.191,154.125 701.358,165.125 731,181.5C 732.049,180.483 733.216,180.316 734.5,181C 750.999,189.503 766.999,198.836 782.5,209C 820.74,236.619 854.74,267.953 884.5,303C 884.167,303.333 883.833,303.667 883.5,304C 885.027,305.368 886.527,305.868 888,305.5C 892.706,310.22 896.706,315.553 900,321.5C 901,321.833 902,322.167 903,322.5C 904.586,324.67 905.92,327.004 907,329.5C 907.667,330.833 908.333,330.833 909,329.5C 909.333,327.833 909.667,326.167 910,324.5C 911.752,327.672 913.752,330.672 916,333.5C 916.167,269.999 916.667,206.665 917.5,143.5 Z"/></g>
<g><path style="opacity:0.998" fill="#5698ff" d="M 404.5,144.5 C 405.833,257.5 405.833,370.5 404.5,483.5C 377.473,481.705 351.807,486.705 327.5,498.5C 327.5,388.833 327.5,279.167 327.5,169.5C 352.092,158.192 377.759,149.859 404.5,144.5 Z"/></g>
<g><path style="opacity:1" fill="#5799ff" d="M 578.5,141.5 C 577.833,142.833 577.167,144.167 576.5,145.5C 546.016,192.713 536.516,244.047 548,299.5C 556.041,335.254 572.207,366.587 596.5,393.5C 595.417,393.461 594.417,393.127 593.5,392.5C 588.606,387.195 583.606,382.028 578.5,377C 578.833,376.667 579.167,376.333 579.5,376C 573.668,371.005 569.668,364.838 567.5,357.5C 566.5,357.5 565.5,357.5 564.5,357.5C 558.334,344.472 552.334,331.306 546.5,318C 546.833,317.667 547.167,317.333 547.5,317C 545.819,315.055 545.152,313.055 545.5,311C 542.952,302.03 540.618,293.03 538.5,284C 539.462,280.939 539.129,277.606 537.5,274C 537.5,262 537.5,250 537.5,238C 539.129,234.394 539.462,231.061 538.5,228C 540.618,218.97 542.952,209.97 545.5,201C 545.167,200.667 544.833,200.333 544.5,200C 546.181,198.055 546.848,196.055 546.5,194C 552.507,178.515 559.507,164.515 567.5,152C 570.425,147.572 574.092,144.072 578.5,141.5 Z"/></g>
<g><path style="opacity:1" fill="#74b3ff" d="M 612.5,148.5 C 613.952,149.302 615.618,149.802 617.5,150C 616.944,150.383 616.611,150.883 616.5,151.5C 610.555,150.302 604.555,149.802 598.5,150C 607.724,151.395 616.724,153.229 625.5,155.5C 625.44,156.043 625.107,156.376 624.5,156.5C 615.378,154.958 606.545,153.291 598,151.5C 593.767,152.843 589.601,154.343 585.5,156C 579.727,161.899 576.394,168.232 575.5,175C 574.572,176.976 573.405,178.809 572,180.5C 570.869,185.23 569.369,189.73 567.5,194C 568.815,195.395 568.481,196.395 566.5,197C 567.815,198.395 567.481,199.395 565.5,200C 566.051,201.398 566.384,202.732 566.5,204C 564.383,210.493 562.716,217.16 561.5,224C 561.616,225.268 561.949,226.602 562.5,228C 561.833,228.667 561.167,229.333 560.5,230C 561.833,247.333 561.833,264.667 560.5,282C 561.167,282.667 561.833,283.333 562.5,284C 561.949,285.398 561.616,286.732 561.5,288C 562.5,291 563.5,294 564.5,297C 564.167,298 563.833,299 563.5,300C 564.128,302.609 565.128,305.275 566.5,308C 566.384,309.268 566.051,310.602 565.5,312C 567.481,312.605 567.815,313.605 566.5,315C 568.481,315.605 568.815,316.605 567.5,318C 569.369,322.27 570.869,326.77 572,331.5C 573.405,333.191 574.572,335.024 575.5,337C 574.366,338.016 574.699,338.683 576.5,339C 575.483,340.049 575.316,341.216 576,342.5C 581.801,351.769 586.801,361.436 591,371.5C 605.078,389.745 621.244,405.745 639.5,419.5C 648.783,427.822 659.449,434.155 671.5,438.5C 672.364,440.197 673.697,441.363 675.5,442C 686.926,446.44 698.593,450.106 710.5,453C 705.732,453.014 701.066,452.181 696.5,450.5C 694.865,451.046 693.199,451.38 691.5,451.5C 678.623,448.226 666.289,443.559 654.5,437.5C 639.399,429.394 625.399,419.727 612.5,408.5C 612.918,407.778 613.584,407.278 614.5,407C 607.828,399.869 601.328,392.702 595,385.5C 547.818,319.826 538.485,248.826 567,172.5C 570.8,163.724 575.967,155.89 582.5,149C 584.5,148.333 586.5,147.667 588.5,147C 596.57,146.403 604.57,146.903 612.5,148.5 Z"/></g>
<g><path style="opacity:1" fill="#63aaff" d="M 625.5,155.5 C 631.685,156.169 637.518,157.836 643,160.5C 643.333,160.167 643.667,159.833 644,159.5C 675.724,167.297 706.224,178.464 735.5,193C 741.07,196.275 746.403,199.775 751.5,203.5C 735.692,196.429 720.026,189.096 704.5,181.5C 689.526,176.452 674.526,171.286 659.5,166C 647.513,164.145 635.346,161.978 623,159.5C 621.234,160.502 619.567,160.168 618,158.5C 610.582,158.481 603.249,158.481 596,158.5C 592.749,159.92 589.915,161.92 587.5,164.5C 587.63,166.423 587.964,168.256 588.5,170C 587.145,176.098 584.812,182.098 581.5,188C 581.667,188.5 581.833,189 582,189.5C 582.718,188.549 583.551,188.383 584.5,189C 581.776,194.505 579.443,200.172 577.5,206C 578.126,206.75 578.626,207.584 579,208.5C 579.667,240.167 579.667,271.833 579,303.5C 578.626,304.416 578.126,305.25 577.5,306C 579.443,311.828 581.776,317.495 584.5,323C 583.551,323.617 582.718,323.451 582,322.5C 581.833,323 581.667,323.5 581.5,324C 584.812,329.902 587.145,335.902 588.5,342C 587.949,343.398 587.616,344.732 587.5,346C 588.167,346.333 588.833,346.667 589.5,347C 588.328,347.419 587.328,348.085 586.5,349C 591.885,357.445 596.718,366.278 601,375.5C 604.963,380.135 608.963,384.802 613,389.5C 614.009,391.025 614.509,392.692 614.5,394.5C 617.5,394.167 618.833,395.5 618.5,398.5C 619.552,398.351 620.552,398.517 621.5,399C 627.263,406.735 634.597,413.402 643.5,419C 644.711,419.893 644.711,420.726 643.5,421.5C 642.378,420.37 641.044,419.703 639.5,419.5C 621.244,405.745 605.078,389.745 591,371.5C 586.801,361.436 581.801,351.769 576,342.5C 575.316,341.216 575.483,340.049 576.5,339C 574.699,338.683 574.366,338.016 575.5,337C 574.572,335.024 573.405,333.191 572,331.5C 570.869,326.77 569.369,322.27 567.5,318C 568.815,316.605 568.481,315.605 566.5,315C 567.815,313.605 567.481,312.605 565.5,312C 566.051,310.602 566.384,309.268 566.5,308C 565.128,305.275 564.128,302.609 563.5,300C 563.833,299 564.167,298 564.5,297C 563.5,294 562.5,291 561.5,288C 561.616,286.732 561.949,285.398 562.5,284C 561.833,283.333 561.167,282.667 560.5,282C 561.833,264.667 561.833,247.333 560.5,230C 561.167,229.333 561.833,228.667 562.5,228C 561.949,226.602 561.616,225.268 561.5,224C 562.716,217.16 564.383,210.493 566.5,204C 566.384,202.732 566.051,201.398 565.5,200C 567.481,199.395 567.815,198.395 566.5,197C 568.481,196.395 568.815,195.395 567.5,194C 569.369,189.73 570.869,185.23 572,180.5C 573.405,178.809 574.572,176.976 575.5,175C 576.394,168.232 579.727,161.899 585.5,156C 589.601,154.343 593.767,152.843 598,151.5C 606.545,153.291 615.378,154.958 624.5,156.5C 625.107,156.376 625.44,156.043 625.5,155.5 Z"/></g>
<g><path style="opacity:1" fill="#5ea5ff" d="M 704.5,181.5 C 709.76,184.805 715.093,188.138 720.5,191.5C 702.607,184.321 685.107,177.988 668,172.5C 659.298,171.462 650.465,169.796 641.5,167.5C 637.091,167.204 633.258,167.537 630,168.5C 628.236,166.741 626.069,166.574 623.5,168C 624.167,168.333 624.833,168.667 625.5,169C 623.5,170 621.5,171 619.5,172C 620.167,172.667 620.833,173.333 621.5,174C 619.5,174 617.5,174 615.5,174C 616.863,175.945 617.697,178.112 618,180.5C 618.667,242.5 618.667,304.5 618,366.5C 617.79,369.234 616.956,371.734 615.5,374C 617.5,376 619.5,378 621.5,380C 620.5,380.333 619.5,380.667 618.5,381C 621.602,383.353 623.602,386.019 624.5,389C 623.402,390.973 623.569,393.14 625,395.5C 629.381,399.721 633.881,403.888 638.5,408C 638.167,408.333 637.833,408.667 637.5,409C 646.384,416.455 656.718,423.955 668.5,431.5C 669.086,431.291 669.586,430.957 670,430.5C 673.232,433.87 677.066,436.37 681.5,438C 692.382,442.026 703.049,445.692 713.5,449C 712.167,449.333 710.833,449.667 709.5,450C 713.465,451.126 717.465,452.126 721.5,453C 733.055,454.171 744.555,455.338 756,456.5C 767.434,456.061 778.768,454.728 790,452.5C 792.17,452.388 794.336,452.722 796.5,453.5C 788.91,455.204 781.243,456.537 773.5,457.5C 753.503,460.166 733.503,460.166 713.5,457.5C 706.117,455.706 698.783,453.706 691.5,451.5C 693.199,451.38 694.865,451.046 696.5,450.5C 701.066,452.181 705.732,453.014 710.5,453C 698.593,450.106 686.926,446.44 675.5,442C 673.697,441.363 672.364,440.197 671.5,438.5C 659.449,434.155 648.783,427.822 639.5,419.5C 641.044,419.703 642.378,420.37 643.5,421.5C 644.711,420.726 644.711,419.893 643.5,419C 634.597,413.402 627.263,406.735 621.5,399C 620.552,398.517 619.552,398.351 618.5,398.5C 618.833,395.5 617.5,394.167 614.5,394.5C 614.509,392.692 614.009,391.025 613,389.5C 608.963,384.802 604.963,380.135 601,375.5C 596.718,366.278 591.885,357.445 586.5,349C 587.328,348.085 588.328,347.419 589.5,347C 588.833,346.667 588.167,346.333 587.5,346C 587.616,344.732 587.949,343.398 588.5,342C 587.145,335.902 584.812,329.902 581.5,324C 581.667,323.5 581.833,323 582,322.5C 582.718,323.451 583.551,323.617 584.5,323C 581.776,317.495 579.443,311.828 577.5,306C 578.126,305.25 578.626,304.416 579,303.5C 579.667,271.833 579.667,240.167 579,208.5C 578.626,207.584 578.126,206.75 577.5,206C 579.443,200.172 581.776,194.505 584.5,189C 583.551,188.383 582.718,188.549 582,189.5C 581.833,189 581.667,188.5 581.5,188C 584.812,182.098 587.145,176.098 588.5,170C 587.964,168.256 587.63,166.423 587.5,164.5C 589.915,161.92 592.749,159.92 596,158.5C 603.249,158.481 610.582,158.481 618,158.5C 619.567,160.168 621.234,160.502 623,159.5C 635.346,161.978 647.513,164.145 659.5,166C 674.526,171.286 689.526,176.452 704.5,181.5 Z"/></g>
<g><path style="opacity:1" fill="#5c9fff" d="M 720.5,191.5 C 727.949,194.391 734.949,198.057 741.5,202.5C 741.465,203.404 740.965,204.07 740,204.5C 728.481,198.987 716.814,193.654 705,188.5C 704.667,188.833 704.333,189.167 704,189.5C 703,188.5 702,187.5 701,186.5C 699.436,186.912 697.936,187.245 696.5,187.5C 688.946,184.134 681.112,181.801 673,180.5C 671.657,181.214 670.324,180.88 669,179.5C 668,179.833 667,180.167 666,180.5C 665.667,179.833 665.333,179.167 665,178.5C 663.774,181.389 661.607,183.222 658.5,184C 659.451,184.718 659.617,185.551 659,186.5C 654.389,183.354 653.389,184.354 656,189.5C 656.667,260.167 656.667,330.833 656,401.5C 655.598,402.872 655.098,404.205 654.5,405.5C 656.336,406.919 658.336,408.086 660.5,409C 659.672,409.915 658.672,410.581 657.5,411C 659.5,412 661.5,413 663.5,414C 662.833,414.333 662.167,414.667 661.5,415C 665.989,415.973 666.322,417.307 662.5,419C 663.667,419.5 664.5,420.333 665,421.5C 665.333,421.167 665.667,420.833 666,420.5C 666.667,421.833 667.333,423.167 668,424.5C 668.333,424.167 668.667,423.833 669,423.5C 673.058,426.534 676.558,429.367 679.5,432C 685.009,433.927 690.342,436.094 695.5,438.5C 702.891,442.635 710.724,444.969 719,445.5C 722.248,448.561 725.748,449.228 729.5,447.5C 737.244,449.573 745.078,450.906 753,451.5C 759.703,450.734 766.203,450.734 772.5,451.5C 779.384,450.287 786.218,448.954 793,447.5C 793.893,448.081 794.893,448.415 796,448.5C 808.755,445.137 821.255,440.971 833.5,436C 846.605,429.117 859.605,422.283 872.5,415.5C 860.691,425.578 847.691,433.912 833.5,440.5C 821.517,445.828 809.184,450.161 796.5,453.5C 794.336,452.722 792.17,452.388 790,452.5C 778.768,454.728 767.434,456.061 756,456.5C 744.555,455.338 733.055,454.171 721.5,453C 717.465,452.126 713.465,451.126 709.5,450C 710.833,449.667 712.167,449.333 713.5,449C 703.049,445.692 692.382,442.026 681.5,438C 677.066,436.37 673.232,433.87 670,430.5C 669.586,430.957 669.086,431.291 668.5,431.5C 656.718,423.955 646.384,416.455 637.5,409C 637.833,408.667 638.167,408.333 638.5,408C 633.881,403.888 629.381,399.721 625,395.5C 623.569,393.14 623.402,390.973 624.5,389C 623.602,386.019 621.602,383.353 618.5,381C 619.5,380.667 620.5,380.333 621.5,380C 619.5,378 617.5,376 615.5,374C 616.956,371.734 617.79,369.234 618,366.5C 618.667,304.5 618.667,242.5 618,180.5C 617.697,178.112 616.863,175.945 615.5,174C 617.5,174 619.5,174 621.5,174C 620.833,173.333 620.167,172.667 619.5,172C 621.5,171 623.5,170 625.5,169C 624.833,168.667 624.167,168.333 623.5,168C 626.069,166.574 628.236,166.741 630,168.5C 633.258,167.537 637.091,167.204 641.5,167.5C 650.465,169.796 659.298,171.462 668,172.5C 685.107,177.988 702.607,184.321 720.5,191.5 Z"/></g>
<g><path style="opacity:0.998" fill="#589bfe" d="M 327.5,169.5 C 327.5,279.167 327.5,388.833 327.5,498.5C 319.2,502.985 311.2,507.985 303.5,513.5C 303.5,427.833 303.5,342.167 303.5,256.5C 306.937,238.921 303.437,222.921 293,208.5C 287.891,203.221 282.724,198.221 277.5,193.5C 293.618,184.442 310.285,176.442 327.5,169.5 Z"/></g>
<g><path style="opacity:0.996" fill="#feeec0" d="M 277.5,193.5 C 282.724,198.221 287.891,203.221 293,208.5C 303.437,222.921 306.937,238.921 303.5,256.5C 290.896,290.808 266.563,304.308 230.5,297C 225.661,295.079 220.994,292.912 216.5,290.5C 205.57,281.948 197.57,271.281 192.5,258.5C 186.953,227.096 198.286,204.262 226.5,190C 244.004,184.444 261.004,185.61 277.5,193.5 Z"/></g>
<g><path style="opacity:1" fill="#5698ff" d="M 696.5,187.5 C 704.009,191.064 712.009,194.564 720.5,198C 725.397,200.608 730.063,203.441 734.5,206.5C 733.504,206.414 732.671,206.748 732,207.5C 728.912,205.706 725.746,204.039 722.5,202.5C 720.482,203.813 719.315,203.147 719,200.5C 718.667,201.167 718.333,201.833 718,202.5C 715.141,199.707 711.974,199.207 708.5,201C 709.833,202 711.167,203 712.5,204C 710.215,205.954 708.048,205.787 706,203.5C 706.077,204.738 705.911,205.738 705.5,206.5C 703.922,205.36 702.256,204.86 700.5,205C 701.126,205.75 701.626,206.584 702,207.5C 702.667,279.5 702.667,351.5 702,423.5C 701.626,424.416 701.126,425.25 700.5,426C 702.5,426.667 704.5,427.333 706.5,428C 705.328,428.419 704.328,429.085 703.5,430C 706.285,430.559 708.618,431.892 710.5,434C 709.833,434.333 709.167,434.667 708.5,435C 711.139,436.946 714.139,437.946 717.5,438C 717.167,438.333 716.833,438.667 716.5,439C 723.917,441.048 731.917,443.214 740.5,445.5C 725.343,445.75 710.843,443.083 697,437.5C 696.617,438.056 696.117,438.389 695.5,438.5C 690.342,436.094 685.009,433.927 679.5,432C 676.558,429.367 673.058,426.534 669,423.5C 668.667,423.833 668.333,424.167 668,424.5C 667.333,423.167 666.667,421.833 666,420.5C 665.667,420.833 665.333,421.167 665,421.5C 664.5,420.333 663.667,419.5 662.5,419C 666.322,417.307 665.989,415.973 661.5,415C 662.167,414.667 662.833,414.333 663.5,414C 661.5,413 659.5,412 657.5,411C 658.672,410.581 659.672,409.915 660.5,409C 658.336,408.086 656.336,406.919 654.5,405.5C 655.098,404.205 655.598,402.872 656,401.5C 656.667,330.833 656.667,260.167 656,189.5C 653.389,184.354 654.389,183.354 659,186.5C 659.617,185.551 659.451,184.718 658.5,184C 661.607,183.222 663.774,181.389 665,178.5C 665.333,179.167 665.667,179.833 666,180.5C 667,180.167 668,179.833 669,179.5C 670.324,180.88 671.657,181.214 673,180.5C 681.112,181.801 688.946,184.134 696.5,187.5 Z"/></g>
<g><path style="opacity:1" fill="#5592ff" d="M 734.5,206.5 C 797.25,238.025 847.75,284.358 886,345.5C 894.734,353.731 900.234,363.731 902.5,375.5C 901.772,382.456 898.772,388.289 893.5,393C 884.482,401.015 875.149,408.681 865.5,416C 826.311,442.068 784.644,451.901 740.5,445.5C 731.917,443.214 723.917,441.048 716.5,439C 716.833,438.667 717.167,438.333 717.5,438C 714.139,437.946 711.139,436.946 708.5,435C 709.167,434.667 709.833,434.333 710.5,434C 708.618,431.892 706.285,430.559 703.5,430C 704.328,429.085 705.328,428.419 706.5,428C 704.5,427.333 702.5,426.667 700.5,426C 701.126,425.25 701.626,424.416 702,423.5C 702.667,351.5 702.667,279.5 702,207.5C 701.626,206.584 701.126,205.75 700.5,205C 702.256,204.86 703.922,205.36 705.5,206.5C 705.911,205.738 706.077,204.738 706,203.5C 708.048,205.787 710.215,205.954 712.5,204C 711.167,203 709.833,202 708.5,201C 711.974,199.207 715.141,199.707 718,202.5C 718.333,201.833 718.667,201.167 719,200.5C 719.315,203.147 720.482,203.813 722.5,202.5C 725.746,204.039 728.912,205.706 732,207.5C 732.671,206.748 733.504,206.414 734.5,206.5 Z"/></g>
<g><path style="opacity:0.999" fill="#9abcff" d="M 647.5,152.5 C 703.701,167.302 754.701,192.135 800.5,227C 844.893,264.227 882.059,307.06 912,355.5C 913.562,357.957 914.562,360.624 915,363.5C 915.816,364.823 916.983,365.489 918.5,365.5C 917.557,368.4 915.89,370.733 913.5,372.5C 911.606,366.699 909.106,361.032 906,355.5C 890.013,328.837 871.68,303.837 851,280.5C 816.855,244.678 778.355,214.511 735.5,190C 718.929,181.886 701.929,174.553 684.5,168C 671.415,164.751 658.415,161.084 645.5,157C 635.674,155.96 626.007,154.126 616.5,151.5C 616.611,150.883 616.944,150.383 617.5,150C 615.618,149.802 613.952,149.302 612.5,148.5C 616.516,148.287 620.35,148.954 624,150.5C 624.167,150.167 624.333,149.833 624.5,149.5C 623.271,148.719 621.938,148.219 620.5,148C 621.333,147.833 622.167,147.667 623,147.5C 631.196,149.106 639.363,150.772 647.5,152.5 Z"/></g>
<g><path style="opacity:1" fill="#518cff" d="M 748.5,222.5 C 749.789,224.248 751.289,224.581 753,223.5C 754.728,227.176 757.061,227.509 760,224.5C 772.043,233.131 783.876,241.298 795.5,249C 812.445,261.612 827.778,275.945 841.5,292C 843.359,292.684 845.026,293.684 846.5,295C 865.264,317.437 882.098,341.271 897,366.5C 900.333,372.5 900.333,378.5 897,384.5C 869.413,415.612 835.413,434.279 795,440.5C 790.641,441.571 785.975,442.571 781,443.5C 775.356,442.787 769.856,442.787 764.5,443.5C 760.807,442.187 757.141,441.687 753.5,442C 753.833,441.667 754.167,441.333 754.5,441C 751.246,440.75 748.246,439.75 745.5,438C 746.833,437.667 748.167,437.333 749.5,437C 746.529,436.206 743.529,435.539 740.5,435C 745.37,432.993 744.704,431.993 738.5,432C 739.717,430.352 740.55,428.519 741,426.5C 741.667,362.833 741.667,299.167 741,235.5C 740.73,232.776 740.23,230.109 739.5,227.5C 739.833,227.167 740.167,226.833 740.5,226.5C 741.62,227.833 742.953,228.333 744.5,228C 743.378,226.387 743.878,225.22 746,224.5C 746.718,225.451 747.551,225.617 748.5,225C 747.402,224.23 747.402,223.397 748.5,222.5 Z"/></g>
<g><path style="opacity:1" fill="#4f86ff" d="M 780.5,252.5 C 781.794,253.29 782.961,254.29 784,255.5C 784.75,254.874 785.584,254.374 786.5,254C 786.167,253.667 785.833,253.333 785.5,253C 788.979,252.434 791.645,253.767 793.5,257C 798.216,257.939 802.383,260.439 806,264.5C 806.333,264.167 806.667,263.833 807,263.5C 831.171,283 852.171,305.333 870,330.5C 880.428,343.016 889.095,356.683 896,371.5C 897.109,376.648 896.109,381.315 893,385.5C 862.971,418.317 826.637,434.984 784,435.5C 783.5,435.333 783,435.167 782.5,435C 783.833,434.333 785.167,433.667 786.5,433C 783.863,430.878 780.863,429.545 777.5,429C 778.191,427.933 778.691,426.766 779,425.5C 779.667,370.5 779.667,315.5 779,260.5C 778.749,258.567 778.249,256.734 777.5,255C 778.996,254.493 780.163,254.993 781,256.5C 781.195,255.181 781.028,253.847 780.5,252.5 Z"/></g>
<g><path style="opacity:0.998" fill="#599ffe" d="M 303.5,256.5 C 303.5,342.167 303.5,427.833 303.5,513.5C 293.638,520.019 284.638,527.686 276.5,536.5C 258.723,520.047 239.056,506.38 217.5,495.5C 216.504,427.238 216.17,358.904 216.5,290.5C 220.994,292.912 225.661,295.079 230.5,297C 266.563,304.308 290.896,290.808 303.5,256.5 Z"/></g>
<g><path style="opacity:0.997" fill="#5ca5fe" d="M 192.5,258.5 C 197.57,271.281 205.57,281.948 216.5,290.5C 216.17,358.904 216.504,427.238 217.5,495.5C 188.822,482.666 159.155,479.666 128.5,486.5C 129.83,435.736 129.83,385.069 128.5,334.5C 147.261,307.066 168.595,281.733 192.5,258.5 Z"/></g>
<g><path style="opacity:1" fill="#80a7ff" d="M 704.5,181.5 C 720.026,189.096 735.692,196.429 751.5,203.5C 773.627,219.434 795.96,235.267 818.5,251C 851.293,282.303 879.293,317.303 902.5,356C 906.289,362.879 908.955,370.046 910.5,377.5C 908.833,379.5 907.167,381.5 905.5,383.5C 904.535,382.279 904.702,380.946 906,379.5C 905.963,370.388 903.297,362.055 898,354.5C 878.084,322.274 854.918,292.774 828.5,266C 816.097,255.599 803.764,244.932 791.5,234C 780.479,225.826 769.145,218.16 757.5,211C 752.271,207.887 746.938,205.053 741.5,202.5C 734.949,198.057 727.949,194.391 720.5,191.5C 715.093,188.138 709.76,184.805 704.5,181.5 Z"/></g>
<g><path style="opacity:1" fill="#4c80ff" d="M 821.5,288.5 C 824.472,290.322 827.472,292.156 830.5,294C 831.833,294.667 831.833,295.333 830.5,296C 836.107,298.744 840.773,302.577 844.5,307.5C 845.325,308.386 846.325,308.719 847.5,308.5C 847.351,309.552 847.517,310.552 848,311.5C 848.333,311.167 848.667,310.833 849,310.5C 854.519,317.381 860.352,323.881 866.5,330C 866.167,330.333 865.833,330.667 865.5,331C 870.998,336.477 875.665,342.643 879.5,349.5C 880.628,350.262 881.795,350.929 883,351.5C 887.509,359.018 891.342,366.851 894.5,375C 892.073,384.084 886.739,390.75 878.5,395C 871.52,399.655 864.854,404.655 858.5,410C 854.932,411.618 851.265,412.951 847.5,414C 847.833,414.333 848.167,414.667 848.5,415C 844.899,415.443 841.565,416.61 838.5,418.5C 837.914,418.291 837.414,417.957 837,417.5C 836,421.167 834.333,421.5 832,418.5C 831.667,419.167 831.333,419.833 831,420.5C 829.417,420.507 827.751,420.174 826,419.5C 825.549,421.929 824.715,422.096 823.5,420C 827.425,416.202 826.925,415.702 822,418.5C 822.077,417.262 821.911,416.262 821.5,415.5C 816.762,418.595 815.595,417.595 818,412.5C 818.667,374.833 818.667,337.167 818,299.5C 817.432,296.779 817.099,294.112 817,291.5C 820.031,295.711 821.031,295.378 820,290.5C 822.69,292.854 823.19,292.187 821.5,288.5 Z"/></g>
<g><path style="opacity:0.999" fill="#8bb1ff" d="M 616.5,151.5 C 626.007,154.126 635.674,155.96 645.5,157C 658.415,161.084 671.415,164.751 684.5,168C 701.929,174.553 718.929,181.886 735.5,190C 778.355,214.511 816.855,244.678 851,280.5C 871.68,303.837 890.013,328.837 906,355.5C 909.106,361.032 911.606,366.699 913.5,372.5C 912.925,374.411 911.925,376.078 910.5,377.5C 908.955,370.046 906.289,362.879 902.5,356C 879.293,317.303 851.293,282.303 818.5,251C 795.96,235.267 773.627,219.434 751.5,203.5C 746.403,199.775 741.07,196.275 735.5,193C 706.224,178.464 675.724,167.297 644,159.5C 643.667,159.833 643.333,160.167 643,160.5C 637.518,157.836 631.685,156.169 625.5,155.5C 616.724,153.229 607.724,151.395 598.5,150C 604.555,149.802 610.555,150.302 616.5,151.5 Z"/></g>
<g><path style="opacity:0.987" fill="#5eaaff" d="M 128.5,334.5 C 129.83,385.069 129.83,435.736 128.5,486.5C 97.5265,495.644 71.3598,512.311 50,536.5C 59.8022,462.601 85.9689,395.268 128.5,334.5 Z"/></g>
<g><path style="opacity:1" fill="#6d9aff" d="M 741.5,202.5 C 746.938,205.053 752.271,207.887 757.5,211C 769.145,218.16 780.479,225.826 791.5,234C 803.764,244.932 816.097,255.599 828.5,266C 854.918,292.774 878.084,322.274 898,354.5C 903.297,362.055 905.963,370.388 906,379.5C 904.702,380.946 904.535,382.279 905.5,383.5C 901.874,388.461 897.874,393.128 893.5,397.5C 887.069,404.272 880.069,410.272 872.5,415.5C 859.605,422.283 846.605,429.117 833.5,436C 821.255,440.971 808.755,445.137 796,448.5C 794.893,448.415 793.893,448.081 793,447.5C 786.218,448.954 779.384,450.287 772.5,451.5C 766.203,450.734 759.703,450.734 753,451.5C 745.078,450.906 737.244,449.573 729.5,447.5C 725.748,449.228 722.248,448.561 719,445.5C 710.724,444.969 702.891,442.635 695.5,438.5C 696.117,438.389 696.617,438.056 697,437.5C 710.843,443.083 725.343,445.75 740.5,445.5C 784.644,451.901 826.311,442.068 865.5,416C 875.149,408.681 884.482,401.015 893.5,393C 898.772,388.289 901.772,382.456 902.5,375.5C 900.234,363.731 894.734,353.731 886,345.5C 847.75,284.358 797.25,238.025 734.5,206.5C 730.063,203.441 725.397,200.608 720.5,198C 712.009,194.564 704.009,191.064 696.5,187.5C 697.936,187.245 699.436,186.912 701,186.5C 702,187.5 703,188.5 704,189.5C 704.333,189.167 704.667,188.833 705,188.5C 716.814,193.654 728.481,198.987 740,204.5C 740.965,204.07 741.465,203.404 741.5,202.5 Z"/></g>
<g><path style="opacity:0.004" fill="#0000ff" d="M 926.5,353.5 C 936.639,371.144 935.639,388.144 923.5,404.5C 922.89,403.609 922.557,402.609 922.5,401.5C 933.249,386.905 934.249,371.572 925.5,355.5C 925.833,354.833 926.167,354.167 926.5,353.5 Z"/></g>
<g><path style="opacity:1" fill="#8bc0ff" d="M 637.5,148.5 C 640.833,149.833 644.167,151.167 647.5,152.5C 639.363,150.772 631.196,149.106 623,147.5C 622.167,147.667 621.333,147.833 620.5,148C 621.938,148.219 623.271,148.719 624.5,149.5C 624.333,149.833 624.167,150.167 624,150.5C 620.35,148.954 616.516,148.287 612.5,148.5C 604.57,146.903 596.57,146.403 588.5,147C 586.5,147.667 584.5,148.333 582.5,149C 575.967,155.89 570.8,163.724 567,172.5C 538.485,248.826 547.818,319.826 595,385.5C 601.328,392.702 607.828,399.869 614.5,407C 613.584,407.278 612.918,407.778 612.5,408.5C 607.167,403.5 601.833,398.5 596.5,393.5C 572.207,366.587 556.041,335.254 548,299.5C 536.516,244.047 546.016,192.713 576.5,145.5C 576.435,145.938 576.601,146.272 577,146.5C 582.7,142.822 588.7,140.822 595,140.5C 609.176,142.968 623.343,145.635 637.5,148.5 Z"/></g>
<g><path style="opacity:0.99" fill="#4572ff" d="M 923.5,359.5 C 927.96,367.656 929.127,376.322 927,385.5C 925.245,390.276 923.412,394.942 921.5,399.5C 921.328,400.492 921.662,401.158 922.5,401.5C 922.557,402.609 922.89,403.609 923.5,404.5C 942.826,446.478 957.159,490.145 966.5,535.5C 965.998,536.521 965.332,536.688 964.5,536C 942.216,514.847 916.883,498.181 888.5,486C 878.15,481.913 867.483,479.079 856.5,477.5C 856.663,467.01 856.83,456.677 857,446.5C 857.333,447.167 857.667,447.833 858,448.5C 858.333,447.167 858.667,445.833 859,444.5C 860.147,445.458 861.147,445.125 862,443.5C 862.763,446.063 863.263,446.063 863.5,443.5C 863.081,442.328 862.415,441.328 861.5,440.5C 863.883,440.127 866.55,439.627 869.5,439C 867.833,438.667 866.167,438.333 864.5,438C 866.833,437.667 869.167,437.333 871.5,437C 866.167,436.333 866.167,435.667 871.5,435C 871.384,433.732 871.051,432.398 870.5,431C 871.167,430.333 871.833,429.667 872.5,429C 871.167,427.16 871.334,426.66 873,427.5C 873.75,426.874 874.584,426.374 875.5,426C 874.072,422.526 874.572,422.026 877,424.5C 877.333,422.833 877.667,421.167 878,419.5C 879,419.5 880,419.5 881,419.5C 881.333,418.5 881.667,417.5 882,416.5C 882.333,416.833 882.667,417.167 883,417.5C 883.978,414.206 884.978,410.54 886,406.5C 889.806,404.532 892.306,401.532 893.5,397.5C 897.874,393.128 901.874,388.461 905.5,383.5C 907.167,381.5 908.833,379.5 910.5,377.5C 911.925,376.078 912.925,374.411 913.5,372.5C 915.89,370.733 917.557,368.4 918.5,365.5C 920.167,363.5 921.833,361.5 923.5,359.5 Z"/></g>
<g><path style="opacity:0.008" fill="#31a3ff" d="M 925.5,355.5 C 934.249,371.572 933.249,386.905 922.5,401.5C 921.662,401.158 921.328,400.492 921.5,399.5C 929.096,389.346 931.263,378.013 928,365.5C 927.058,362.626 925.891,359.96 924.5,357.5C 924.328,356.508 924.662,355.842 925.5,355.5 Z"/></g>
<g><path style="opacity:0.012" fill="#5050ff" d="M 924.5,357.5 C 925.891,359.96 927.058,362.626 928,365.5C 931.263,378.013 929.096,389.346 921.5,399.5C 923.412,394.942 925.245,390.276 927,385.5C 929.127,376.322 927.96,367.656 923.5,359.5C 923.328,358.508 923.662,357.842 924.5,357.5 Z"/></g>
<g><path style="opacity:0.988" fill="#4879ff" d="M 893.5,397.5 C 892.306,401.532 889.806,404.532 886,406.5C 884.978,410.54 883.978,414.206 883,417.5C 882.667,417.167 882.333,416.833 882,416.5C 881.667,417.5 881.333,418.5 881,419.5C 880,419.5 879,419.5 878,419.5C 877.667,421.167 877.333,422.833 877,424.5C 874.572,422.026 874.072,422.526 875.5,426C 874.584,426.374 873.75,426.874 873,427.5C 871.334,426.66 871.167,427.16 872.5,429C 871.833,429.667 871.167,430.333 870.5,431C 871.051,432.398 871.384,433.732 871.5,435C 866.167,435.667 866.167,436.333 871.5,437C 869.167,437.333 866.833,437.667 864.5,438C 866.167,438.333 867.833,438.667 869.5,439C 866.55,439.627 863.883,440.127 861.5,440.5C 862.415,441.328 863.081,442.328 863.5,443.5C 863.263,446.063 862.763,446.063 862,443.5C 861.147,445.125 860.147,445.458 859,444.5C 858.667,445.833 858.333,447.167 858,448.5C 857.667,447.833 857.333,447.167 857,446.5C 856.83,456.677 856.663,467.01 856.5,477.5C 834.495,473.75 813.162,476.25 792.5,485C 784.955,488.604 777.622,492.437 770.5,496.5C 769.515,492.366 769.182,488.032 769.5,483.5C 774.378,483.449 779.045,482.615 783.5,481C 778.887,481.325 774.221,481.825 769.5,482.5C 769.5,480.167 769.5,477.833 769.5,475.5C 771.359,475.461 772.692,476.294 773.5,478C 774.833,478.667 776.167,478.667 777.5,478C 776.549,477.282 776.383,476.449 777,475.5C 780.727,474.042 783.06,471.375 784,467.5C 787.809,466.554 791.475,466.554 795,467.5C 797.556,466.781 798.723,465.114 798.5,462.5C 800.854,462.162 803.187,461.662 805.5,461C 804.5,460.667 803.5,460.333 802.5,460C 804.5,459.667 806.5,459.333 808.5,459C 807.304,458.346 807.304,457.846 808.5,457.5C 809.768,458.428 811.101,458.595 812.5,458C 811.72,456.927 811.887,455.76 813,454.5C 813.333,454.833 813.667,455.167 814,455.5C 817.139,454.199 819.805,452.199 822,449.5C 823.84,450.833 824.34,450.666 823.5,449C 825.839,447.657 828.172,446.324 830.5,445C 829.833,444.667 829.167,444.333 828.5,444C 830.584,443.303 832.251,442.136 833.5,440.5C 847.691,433.912 860.691,425.578 872.5,415.5C 880.069,410.272 887.069,404.272 893.5,397.5 Z"/></g>
<g><path style="opacity:0.993" fill="#4e87ff" d="M 713.5,457.5 C 733.503,460.166 753.503,460.166 773.5,457.5C 771.909,458.219 770.409,459.219 769,460.5C 768,460.167 767,459.833 766,459.5C 761.834,460.588 757.834,461.922 754,463.5C 753.667,463.167 753.333,462.833 753,462.5C 746.912,462.853 741.079,464.186 735.5,466.5C 733.139,465.979 730.806,465.646 728.5,465.5C 726.116,466.582 723.95,467.249 722,467.5C 721.667,466.833 721.333,466.167 721,465.5C 720.333,466.833 719.667,466.833 719,465.5C 718.333,466.167 717.667,466.833 717,467.5C 715.899,465.606 714.566,464.939 713,465.5C 712.085,466.328 711.419,467.328 711,468.5C 707.851,467.05 704.518,466.05 701,465.5C 699.84,467.797 698.84,467.464 698,464.5C 697.333,465.833 696.667,467.167 696,468.5C 695.333,467.167 694.667,467.167 694,468.5C 693.667,467.833 693.333,467.167 693,466.5C 692,466.833 691,467.167 690,467.5C 689.333,464.833 688.667,464.833 688,467.5C 687.641,464.456 686.974,464.122 686,466.5C 684.203,463.904 682.869,464.237 682,467.5C 681.667,467.167 681.333,466.833 681,466.5C 680.667,467.5 680.333,468.5 680,469.5C 679.134,465.193 678.134,464.86 677,468.5C 676.134,464.193 675.134,463.86 674,467.5C 673.134,463.193 672.134,462.86 671,466.5C 670.667,465.5 670.333,464.5 670,463.5C 668.165,465.449 666.999,467.783 666.5,470.5C 661.926,468.629 657.426,466.629 653,464.5C 652.312,465.332 652.479,465.998 653.5,466.5C 658.074,468.371 662.574,470.371 667,472.5C 667.819,478.681 667.653,484.681 666.5,490.5C 638.266,480.114 609.6,478.781 580.5,486.5C 580.667,463.164 580.5,439.831 580,416.5C 577.967,414.65 577.967,413.984 580,414.5C 580.236,412.236 580.736,410.069 581.5,408C 580.346,407.086 580.513,406.253 582,405.5C 584.608,410.16 588.275,414.494 593,418.5C 594,417.167 595,415.833 596,414.5C 596.5,415 597,415.5 597.5,416C 596.66,417.666 597.16,417.833 599,416.5C 600.182,418.866 601.349,421.533 602.5,424.5C 603.93,424.579 605.264,424.246 606.5,423.5C 606.677,426.078 607.843,426.078 610,423.5C 614.338,427.895 618.672,431.562 623,434.5C 623.333,433.833 623.667,433.167 624,432.5C 627.508,434.587 630.842,436.92 634,439.5C 634.414,439.043 634.914,438.709 635.5,438.5C 636.333,439.5 637.167,440.5 638,441.5C 639.388,440.446 640.888,440.28 642.5,441C 646.786,442.476 649.953,444.643 652,447.5C 652.519,446.484 653.353,445.818 654.5,445.5C 659.083,447.479 663.25,449.479 667,451.5C 667.333,450.833 667.667,450.167 668,449.5C 671.073,450.982 673.907,452.149 676.5,453C 682.941,454.073 689.274,455.573 695.5,457.5C 696.833,456.833 698.167,456.167 699.5,455.5C 703.997,457.217 708.663,457.884 713.5,457.5 Z"/></g>
<g><path style="opacity:0.993" fill="#4b80ff" d="M 833.5,440.5 C 832.251,442.136 830.584,443.303 828.5,444C 829.167,444.333 829.833,444.667 830.5,445C 828.172,446.324 825.839,447.657 823.5,449C 824.34,450.666 823.84,450.833 822,449.5C 819.805,452.199 817.139,454.199 814,455.5C 813.667,455.167 813.333,454.833 813,454.5C 811.887,455.76 811.72,456.927 812.5,458C 811.101,458.595 809.768,458.428 808.5,457.5C 807.304,457.846 807.304,458.346 808.5,459C 806.5,459.333 804.5,459.667 802.5,460C 803.5,460.333 804.5,460.667 805.5,461C 803.187,461.662 800.854,462.162 798.5,462.5C 798.723,465.114 797.556,466.781 795,467.5C 791.475,466.554 787.809,466.554 784,467.5C 783.06,471.375 780.727,474.042 777,475.5C 776.383,476.449 776.549,477.282 777.5,478C 776.167,478.667 774.833,478.667 773.5,478C 772.692,476.294 771.359,475.461 769.5,475.5C 769.5,477.833 769.5,480.167 769.5,482.5C 774.221,481.825 778.887,481.325 783.5,481C 779.045,482.615 774.378,483.449 769.5,483.5C 769.182,488.032 769.515,492.366 770.5,496.5C 755.509,507.825 742.509,521.159 731.5,536.5C 712.546,517.193 690.879,501.86 666.5,490.5C 667.653,484.681 667.819,478.681 667,472.5C 662.574,470.371 658.074,468.371 653.5,466.5C 652.479,465.998 652.312,465.332 653,464.5C 657.426,466.629 661.926,468.629 666.5,470.5C 666.999,467.783 668.165,465.449 670,463.5C 670.333,464.5 670.667,465.5 671,466.5C 672.134,462.86 673.134,463.193 674,467.5C 675.134,463.86 676.134,464.193 677,468.5C 678.134,464.86 679.134,465.193 680,469.5C 680.333,468.5 680.667,467.5 681,466.5C 681.333,466.833 681.667,467.167 682,467.5C 682.869,464.237 684.203,463.904 686,466.5C 686.974,464.122 687.641,464.456 688,467.5C 688.667,464.833 689.333,464.833 690,467.5C 691,467.167 692,466.833 693,466.5C 693.333,467.167 693.667,467.833 694,468.5C 694.667,467.167 695.333,467.167 696,468.5C 696.667,467.167 697.333,465.833 698,464.5C 698.84,467.464 699.84,467.797 701,465.5C 704.518,466.05 707.851,467.05 711,468.5C 711.419,467.328 712.085,466.328 713,465.5C 714.566,464.939 715.899,465.606 717,467.5C 717.667,466.833 718.333,466.167 719,465.5C 719.667,466.833 720.333,466.833 721,465.5C 721.333,466.167 721.667,466.833 722,467.5C 723.95,467.249 726.116,466.582 728.5,465.5C 730.806,465.646 733.139,465.979 735.5,466.5C 741.079,464.186 746.912,462.853 753,462.5C 753.333,462.833 753.667,463.167 754,463.5C 757.834,461.922 761.834,460.588 766,459.5C 767,459.833 768,460.167 769,460.5C 770.409,459.219 771.909,458.219 773.5,457.5C 781.243,456.537 788.91,455.204 796.5,453.5C 809.184,450.161 821.517,445.828 833.5,440.5 Z"/></g>
<g><path style="opacity:0.99" fill="#4e85ff" d="M 580.5,959.5 C 580.5,939.5 580.5,919.5 580.5,899.5C 578.901,899.768 577.568,899.434 576.5,898.5C 594.932,901.012 610.432,895.345 623,881.5C 625.514,877.475 627.181,873.141 628,868.5C 628.333,851.5 628.667,834.5 629,817.5C 634.753,800.534 646.587,793.034 664.5,795C 678.651,798.819 686.818,807.985 689,822.5C 689.877,841.862 689.544,861.195 688,880.5C 681.305,913.039 662.805,936.206 632.5,950C 615.888,957.089 598.555,960.256 580.5,959.5 Z"/></g>
</svg>
